<svg xmlns="http://www.w3.org/2000/svg" viewBox="0 0 360 520">
  <defs>
    <linearGradient id="bg" x1="0%" y1="0%" x2="100%" y2="100%">
      <stop offset="0%" stop-color="#1c3f32"/>
      <stop offset="100%" stop-color="#4ddc9b"/>
    </linearGradient>
    <radialGradient id="glow" cx="50%" cy="30%" r="70%">
      <stop offset="0%" stop-color="#ffffff" stop-opacity="0.34"/>
      <stop offset="100%" stop-color="#ffffff" stop-opacity="0"/>
    </radialGradient>
  </defs>
  <rect width="360" height="520" rx="30" fill="url(#bg)"/>
  <rect x="16" y="16" width="328" height="488" rx="24" fill="none" stroke="#fff4e6" stroke-width="4" opacity="0.92"/>
  <rect x="30" y="30" width="300" height="460" rx="22" fill="url(#glow)" opacity="0.38"/>
  <ellipse cx="180" cy="220" rx="96" ry="122" fill="#fff3e9" fill-opacity="0.16"/>
  <ellipse cx="180" cy="444" rx="118" ry="24" fill="#130d18" fill-opacity="0.18"/>
  <path d="M100 328c22-36 50-56 80-56s58 20 80 56v78H100z" fill="#1f7c58"/>
  <path d="M116 328c16 18 34 28 64 28s48-10 64-28v68H116z" fill="#ffffff" fill-opacity="0.08"/>
  <circle cx="180" cy="206" r="56" fill="#efc9ab"/>
  <path d="M118 146c24-18 100-18 124 0l-10 20H128z" fill="#2d2417"/><path d="M210 142l14-22 22 10-18 18z" fill="#ffd36e"/>
  <ellipse cx="158" cy="208" rx="8" ry="10" fill="#2d2238"/>
  <ellipse cx="202" cy="208" rx="8" ry="10" fill="#2d2238"/>
  <circle cx="160" cy="206" r="3" fill="#ffffff"/>
  <circle cx="204" cy="206" r="3" fill="#ffffff"/>
  <path d="M158 240c14 10 30 10 44 0" stroke="#7a3d3d" stroke-width="6" stroke-linecap="round" fill="none"/>
  <circle cx="132" cy="226" r="10" fill="#ffb8a6" fill-opacity="0.45"/>
  <circle cx="228" cy="226" r="10" fill="#ffb8a6" fill-opacity="0.45"/>
  <path d="M132 392c0-38 24-66 64-66 28 0 56 18 56 44 0 22-16 38-42 38 8 6 12 14 12 24-36 2-70-10-90-40z" fill="#ffd36e"/><path d="M212 338l18-18 8 20" stroke="#fff4be" stroke-width="6" fill="none"/>
  <text x="30" y="58" font-size="17" fill="#fff7ef" font-family="Trebuchet MS, sans-serif" letter-spacing="1.6">DOMATORE DI DRAGHI</text>
  <text x="30" y="460" font-size="34" fill="#fff7ef" font-family="Georgia, serif" font-weight="700">Rowan Flint</text>
</svg>