<svg xmlns="http://www.w3.org/2000/svg" viewBox="0 0 360 520">
  <defs><linearGradient id="g" x1="0%" y1="0%" x2="100%" y2="100%"><stop offset="0%" stop-color="#291348"/><stop offset="100%" stop-color="#b282ff"/></linearGradient></defs>
  <rect width="360" height="520" rx="28" fill="url(#g)"/><rect x="18" y="18" width="324" height="484" rx="22" fill="none" stroke="#f4ebff" stroke-width="4"/>
  <path d="M82 322c20-78 56-116 98-116 42 0 76 42 98 116" fill="#f4ebff"/><circle cx="180" cy="166" r="48" fill="#f4ebff"/><path d="M116 138c18-34 58-46 84-44 28 2 54 17 58 52-24-14-48-19-71-17-28 2-45 6-71 9z" fill="#48217a"/><path d="M112 292h136M112 316h136" stroke="#b282ff" stroke-width="6" stroke-linecap="round"/>
  <text x="32" y="58" font-size="18" fill="#fbf8ff" font-family="'Trebuchet MS', sans-serif" letter-spacing="2">CONSPIRACY STYLIST</text><text x="32" y="458" font-size="34" fill="#fbf8ff" font-family="Georgia, serif" font-weight="700">Lola Lattice</text>
</svg>
