<svg xmlns="http://www.w3.org/2000/svg" viewBox="0 0 360 520">
  <defs>
    <linearGradient id="bg" x1="0%" y1="0%" x2="100%" y2="100%">
      <stop offset="0%" stop-color="#1f2f55"/>
      <stop offset="100%" stop-color="#86b7ff"/>
    </linearGradient>
    <radialGradient id="glow" cx="50%" cy="30%" r="70%">
      <stop offset="0%" stop-color="#ffffff" stop-opacity="0.34"/>
      <stop offset="100%" stop-color="#ffffff" stop-opacity="0"/>
    </radialGradient>
  </defs>
  <rect width="360" height="520" rx="30" fill="url(#bg)"/>
  <rect x="16" y="16" width="328" height="488" rx="24" fill="none" stroke="#fff4e6" stroke-width="4" opacity="0.92"/>
  <rect x="30" y="30" width="300" height="460" rx="22" fill="url(#glow)" opacity="0.38"/>
  <ellipse cx="180" cy="220" rx="96" ry="122" fill="#fff3e9" fill-opacity="0.16"/>
  <ellipse cx="180" cy="444" rx="118" ry="24" fill="#130d18" fill-opacity="0.18"/>
  <path d="M100 328c22-36 50-56 80-56s58 20 80 56v78H100z" fill="#496bbd"/>
  <path d="M116 328c16 18 34 28 64 28s48-10 64-28v68H116z" fill="#ffffff" fill-opacity="0.08"/>
  <circle cx="180" cy="206" r="56" fill="#f5d7c2"/>
  <path d="M126 140c20-10 88-10 108 0" stroke="#fff4aa" stroke-width="10" fill="none"/><circle cx="180" cy="138" r="8" fill="#fff4aa"/>
  <ellipse cx="158" cy="208" rx="8" ry="10" fill="#2d2238"/>
  <ellipse cx="202" cy="208" rx="8" ry="10" fill="#2d2238"/>
  <circle cx="160" cy="206" r="3" fill="#ffffff"/>
  <circle cx="204" cy="206" r="3" fill="#ffffff"/>
  <path d="M158 240c14 10 30 10 44 0" stroke="#7a3d3d" stroke-width="6" stroke-linecap="round" fill="none"/>
  <circle cx="132" cy="226" r="10" fill="#ffb8a6" fill-opacity="0.45"/>
  <circle cx="228" cy="226" r="10" fill="#ffb8a6" fill-opacity="0.45"/>
  <path d="M154 352c0-18 16-32 34-32-8 4-14 16-14 28s6 24 16 30c-2 2-8 2-12 2-14 0-24-12-24-28z" fill="#fff4aa"/><path d="M216 334l8 16 18 2-12 12 4 18-18-10-16 10 4-18-12-12 18-2z" fill="#fff6ad"/>
  <text x="30" y="58" font-size="17" fill="#fff7ef" font-family="Trebuchet MS, sans-serif" letter-spacing="1.6">DRUIDA DELLE STELLE</text>
  <text x="30" y="460" font-size="34" fill="#fff7ef" font-family="Georgia, serif" font-weight="700">Nimue Nimbus</text>
</svg>