<svg xmlns="http://www.w3.org/2000/svg" viewBox="0 0 360 520">
  <defs><linearGradient id="g" x1="0%" y1="0%" x2="100%" y2="100%"><stop offset="0%" stop-color="#5d2d11"/><stop offset="100%" stop-color="#f6c453"/></linearGradient></defs>
  <rect width="360" height="520" rx="28" fill="url(#g)"/><rect x="18" y="18" width="324" height="484" rx="22" fill="none" stroke="#fff7de" stroke-width="4"/>
  <path d="M80 316c38-72 58-114 100-114 41 0 61 42 99 114" fill="#fff7de"/><circle cx="180" cy="166" r="48" fill="#fff7de"/><path d="M121 145c10-42 84-64 119-11-26 6-46 24-50 35-10-11-33-20-69-24z" fill="#7b4b18"/><path d="M120 314c24-34 48-34 60 0 12-34 36-34 60 0" fill="none" stroke="#d47e18" stroke-width="10" stroke-linecap="round"/>
  <text x="32" y="58" font-size="18" fill="#fffdf5" font-family="'Trebuchet MS', sans-serif" letter-spacing="2">STREGA DEL BOSCO</text><text x="32" y="458" font-size="34" fill="#fffdf5" font-family="Georgia, serif" font-weight="700">Mirabel Moss</text>
</svg>
