<svg xmlns="http://www.w3.org/2000/svg" viewBox="0 0 360 520">
  <defs><linearGradient id="g" x1="0%" y1="0%" x2="100%" y2="100%"><stop offset="0%" stop-color="#4c1430"/><stop offset="100%" stop-color="#ff6fa8"/></linearGradient></defs>
  <rect width="360" height="520" rx="28" fill="url(#g)"/><rect x="18" y="18" width="324" height="484" rx="22" fill="none" stroke="#fff0f6" stroke-width="4"/>
  <path d="M84 322c20-72 54-120 96-120 44 0 78 48 96 120" fill="#fff0f6"/><circle cx="180" cy="162" r="46" fill="#fff0f6"/><path d="M117 142c14-41 48-57 91-55 34 1 54 22 57 49-25-11-54-13-82-9-27 4-44 10-66 15z" fill="#7b234d"/><path d="M134 282c16 11 38 16 46 16s30-5 46-16" fill="none" stroke="#ff6fa8" stroke-width="8" stroke-linecap="round"/>
  <text x="32" y="58" font-size="18" fill="#fff8fb" font-family="'Trebuchet MS', sans-serif" letter-spacing="2">LOUNGE LEGEND</text><text x="32" y="458" font-size="34" fill="#fff8fb" font-family="Georgia, serif" font-weight="700">Vivi Velvet</text>
</svg>
