<svg xmlns="http://www.w3.org/2000/svg" viewBox="0 0 360 520">
  <defs><linearGradient id="g" x1="0%" y1="0%" x2="100%" y2="100%"><stop offset="0%" stop-color="#3c0b33"/><stop offset="100%" stop-color="#ff5db1"/></linearGradient></defs>
  <rect width="360" height="520" rx="28" fill="url(#g)"/><rect x="18" y="18" width="324" height="484" rx="22" fill="none" stroke="#ffe4f1" stroke-width="4"/>
  <path d="M78 330c24-74 55-124 102-124 46 0 81 48 101 124" fill="#ffe4f1"/><circle cx="180" cy="164" r="48" fill="#ffe4f1"/><path d="M118 145c8-22 30-38 62-42 44-4 72 20 74 58-17-18-40-26-69-24-26 2-47 7-67 8z" fill="#79104b"/><path d="M154 236l18 12 18-12" fill="none" stroke="#ff5db1" stroke-width="7" stroke-linecap="round"/>
  <text x="32" y="58" font-size="18" fill="#fff7fb" font-family="'Trebuchet MS', sans-serif" letter-spacing="2">AFTERPARTY METEOR</text><text x="32" y="458" font-size="34" fill="#fff7fb" font-family="Georgia, serif" font-weight="700">Zara Zap</text>
</svg>
